<mxfile host="app.diagrams.net" modified="2021-03-27T06:41:57.207Z" agent="5.0 (Windows NT 10.0; Win64; x64) AppleWebKit/537.36 (KHTML, like Gecko) Chrome/89.0.4389.90 Safari/537.36" etag="kwoQlnCPywn_QZWe17kP" version="14.5.3" type="github">
  <diagram id="R2lEEEUBdFMjLlhIrx00" name="Page-1">
    <mxGraphModel dx="1422" dy="794" grid="1" gridSize="10" guides="1" tooltips="1" connect="1" arrows="1" fold="1" page="1" pageScale="1" pageWidth="850" pageHeight="1100" math="0" shadow="0" extFonts="Permanent Marker^https://fonts.googleapis.com/css?family=Permanent+Marker">
      <root>
        <mxCell id="0" />
        <mxCell id="1" parent="0" />
        <mxCell id="ykE6M-6xC8zTkUyc1u82-1" value="Face_image" style="shape=table;startSize=0;container=1;collapsible=1;childLayout=tableLayout;fixedRows=1;rowLines=0;fontStyle=1;align=center;resizeLast=1;" vertex="1" parent="1">
          <mxGeometry x="80" y="20" width="230" height="370" as="geometry" />
        </mxCell>
        <mxCell id="ykE6M-6xC8zTkUyc1u82-2" value="" style="shape=partialRectangle;collapsible=0;dropTarget=0;pointerEvents=0;fillColor=none;top=0;left=0;bottom=1;right=0;points=[[0,0.5],[1,0.5]];portConstraint=eastwest;" vertex="1" parent="ykE6M-6xC8zTkUyc1u82-1">
          <mxGeometry width="230" height="30" as="geometry" />
        </mxCell>
        <mxCell id="ykE6M-6xC8zTkUyc1u82-3" value="PK" style="shape=partialRectangle;connectable=0;fillColor=none;top=0;left=0;bottom=0;right=0;fontStyle=1;overflow=hidden;" vertex="1" parent="ykE6M-6xC8zTkUyc1u82-2">
          <mxGeometry width="30" height="30" as="geometry" />
        </mxCell>
        <mxCell id="ykE6M-6xC8zTkUyc1u82-4" value="ID" style="shape=partialRectangle;connectable=0;fillColor=none;top=0;left=0;bottom=0;right=0;align=left;spacingLeft=6;fontStyle=5;overflow=hidden;" vertex="1" parent="ykE6M-6xC8zTkUyc1u82-2">
          <mxGeometry x="30" width="200" height="30" as="geometry" />
        </mxCell>
        <mxCell id="ykE6M-6xC8zTkUyc1u82-5" value="" style="shape=partialRectangle;collapsible=0;dropTarget=0;pointerEvents=0;fillColor=none;top=0;left=0;bottom=0;right=0;points=[[0,0.5],[1,0.5]];portConstraint=eastwest;" vertex="1" parent="ykE6M-6xC8zTkUyc1u82-1">
          <mxGeometry y="30" width="230" height="30" as="geometry" />
        </mxCell>
        <mxCell id="ykE6M-6xC8zTkUyc1u82-6" value="" style="shape=partialRectangle;connectable=0;fillColor=none;top=0;left=0;bottom=0;right=0;editable=1;overflow=hidden;" vertex="1" parent="ykE6M-6xC8zTkUyc1u82-5">
          <mxGeometry width="30" height="30" as="geometry" />
        </mxCell>
        <mxCell id="ykE6M-6xC8zTkUyc1u82-7" value="photo" style="shape=partialRectangle;connectable=0;fillColor=none;top=0;left=0;bottom=0;right=0;align=left;spacingLeft=6;overflow=hidden;" vertex="1" parent="ykE6M-6xC8zTkUyc1u82-5">
          <mxGeometry x="30" width="200" height="30" as="geometry" />
        </mxCell>
        <mxCell id="ykE6M-6xC8zTkUyc1u82-8" value="" style="shape=partialRectangle;collapsible=0;dropTarget=0;pointerEvents=0;fillColor=none;top=0;left=0;bottom=0;right=0;points=[[0,0.5],[1,0.5]];portConstraint=eastwest;" vertex="1" parent="ykE6M-6xC8zTkUyc1u82-1">
          <mxGeometry y="60" width="230" height="30" as="geometry" />
        </mxCell>
        <mxCell id="ykE6M-6xC8zTkUyc1u82-9" value="" style="shape=partialRectangle;connectable=0;fillColor=none;top=0;left=0;bottom=0;right=0;editable=1;overflow=hidden;" vertex="1" parent="ykE6M-6xC8zTkUyc1u82-8">
          <mxGeometry width="30" height="30" as="geometry" />
        </mxCell>
        <mxCell id="ykE6M-6xC8zTkUyc1u82-10" value="name" style="shape=partialRectangle;connectable=0;fillColor=none;top=0;left=0;bottom=0;right=0;align=left;spacingLeft=6;overflow=hidden;" vertex="1" parent="ykE6M-6xC8zTkUyc1u82-8">
          <mxGeometry x="30" width="200" height="30" as="geometry" />
        </mxCell>
        <mxCell id="ykE6M-6xC8zTkUyc1u82-11" value="" style="shape=partialRectangle;collapsible=0;dropTarget=0;pointerEvents=0;fillColor=none;top=0;left=0;bottom=0;right=0;points=[[0,0.5],[1,0.5]];portConstraint=eastwest;" vertex="1" parent="ykE6M-6xC8zTkUyc1u82-1">
          <mxGeometry y="90" width="230" height="30" as="geometry" />
        </mxCell>
        <mxCell id="ykE6M-6xC8zTkUyc1u82-12" value="" style="shape=partialRectangle;connectable=0;fillColor=none;top=0;left=0;bottom=0;right=0;editable=1;overflow=hidden;" vertex="1" parent="ykE6M-6xC8zTkUyc1u82-11">
          <mxGeometry width="30" height="30" as="geometry" />
        </mxCell>
        <mxCell id="ykE6M-6xC8zTkUyc1u82-13" value="date" style="shape=partialRectangle;connectable=0;fillColor=none;top=0;left=0;bottom=0;right=0;align=left;spacingLeft=6;overflow=hidden;" vertex="1" parent="ykE6M-6xC8zTkUyc1u82-11">
          <mxGeometry x="30" width="200" height="30" as="geometry" />
        </mxCell>
        <mxCell id="ykE6M-6xC8zTkUyc1u82-14" value="age" style="text;strokeColor=none;fillColor=none;spacingLeft=4;spacingRight=4;overflow=hidden;rotatable=0;points=[[0,0.5],[1,0.5]];portConstraint=eastwest;fontSize=12;" vertex="1" parent="1">
          <mxGeometry x="120" y="150" width="150" height="30" as="geometry" />
        </mxCell>
        <mxCell id="ykE6M-6xC8zTkUyc1u82-15" value="criminal_or_missing" style="text;strokeColor=none;fillColor=none;spacingLeft=4;spacingRight=4;overflow=hidden;rotatable=0;points=[[0,0.5],[1,0.5]];portConstraint=eastwest;fontSize=12;" vertex="1" parent="1">
          <mxGeometry x="120" y="320" width="150" height="30" as="geometry" />
        </mxCell>
        <mxCell id="ykE6M-6xC8zTkUyc1u82-16" value="description" style="text;strokeColor=none;fillColor=none;spacingLeft=4;spacingRight=4;overflow=hidden;rotatable=0;points=[[0,0.5],[1,0.5]];portConstraint=eastwest;fontSize=12;" vertex="1" parent="1">
          <mxGeometry x="120" y="340" width="150" height="30" as="geometry" />
        </mxCell>
        <mxCell id="ykE6M-6xC8zTkUyc1u82-17" value="gender" style="text;strokeColor=none;fillColor=none;spacingLeft=4;spacingRight=4;overflow=hidden;rotatable=0;points=[[0,0.5],[1,0.5]];portConstraint=eastwest;fontSize=12;" vertex="1" parent="1">
          <mxGeometry x="120" y="180" width="150" height="30" as="geometry" />
        </mxCell>
        <mxCell id="ykE6M-6xC8zTkUyc1u82-18" value="miss_date" style="text;strokeColor=none;fillColor=none;spacingLeft=4;spacingRight=4;overflow=hidden;rotatable=0;points=[[0,0.5],[1,0.5]];portConstraint=eastwest;fontSize=12;" vertex="1" parent="1">
          <mxGeometry x="120" y="260" width="150" height="30" as="geometry" />
        </mxCell>
        <mxCell id="ykE6M-6xC8zTkUyc1u82-19" value="case_registerd_date" style="text;strokeColor=none;fillColor=none;spacingLeft=4;spacingRight=4;overflow=hidden;rotatable=0;points=[[0,0.5],[1,0.5]];portConstraint=eastwest;fontSize=12;" vertex="1" parent="1">
          <mxGeometry x="120" y="290" width="150" height="30" as="geometry" />
        </mxCell>
        <mxCell id="ykE6M-6xC8zTkUyc1u82-20" value="address" style="text;strokeColor=none;fillColor=none;spacingLeft=4;spacingRight=4;overflow=hidden;rotatable=0;points=[[0,0.5],[1,0.5]];portConstraint=eastwest;fontSize=12;" vertex="1" parent="1">
          <mxGeometry x="120" y="170" width="150" height="20" as="geometry" />
        </mxCell>
        <mxCell id="ykE6M-6xC8zTkUyc1u82-21" value="location_missing" style="text;strokeColor=none;fillColor=none;spacingLeft=4;spacingRight=4;overflow=hidden;rotatable=0;points=[[0,0.5],[1,0.5]];portConstraint=eastwest;fontSize=12;" vertex="1" parent="1">
          <mxGeometry x="120" y="225" width="150" height="30" as="geometry" />
        </mxCell>
        <mxCell id="ykE6M-6xC8zTkUyc1u82-22" value="Table" style="shape=table;startSize=30;container=1;collapsible=1;childLayout=tableLayout;fixedRows=1;rowLines=0;fontStyle=1;align=center;resizeLast=1;" vertex="1" parent="1">
          <mxGeometry x="470" y="70" width="180" height="410" as="geometry" />
        </mxCell>
        <mxCell id="ykE6M-6xC8zTkUyc1u82-23" value="" style="shape=partialRectangle;collapsible=0;dropTarget=0;pointerEvents=0;fillColor=none;top=0;left=0;bottom=0;right=0;points=[[0,0.5],[1,0.5]];portConstraint=eastwest;" vertex="1" parent="ykE6M-6xC8zTkUyc1u82-22">
          <mxGeometry y="30" width="180" height="30" as="geometry" />
        </mxCell>
        <mxCell id="ykE6M-6xC8zTkUyc1u82-24" value="PK,FK1" style="shape=partialRectangle;connectable=0;fillColor=none;top=0;left=0;bottom=0;right=0;fontStyle=1;overflow=hidden;" vertex="1" parent="ykE6M-6xC8zTkUyc1u82-23">
          <mxGeometry width="60" height="30" as="geometry" />
        </mxCell>
        <mxCell id="ykE6M-6xC8zTkUyc1u82-25" value="ID" style="shape=partialRectangle;connectable=0;fillColor=none;top=0;left=0;bottom=0;right=0;align=left;spacingLeft=6;fontStyle=5;overflow=hidden;" vertex="1" parent="ykE6M-6xC8zTkUyc1u82-23">
          <mxGeometry x="60" width="120" height="30" as="geometry" />
        </mxCell>
        <mxCell id="ykE6M-6xC8zTkUyc1u82-26" value="" style="shape=partialRectangle;collapsible=0;dropTarget=0;pointerEvents=0;fillColor=none;top=0;left=0;bottom=1;right=0;points=[[0,0.5],[1,0.5]];portConstraint=eastwest;" vertex="1" parent="ykE6M-6xC8zTkUyc1u82-22">
          <mxGeometry y="60" width="180" height="30" as="geometry" />
        </mxCell>
        <mxCell id="ykE6M-6xC8zTkUyc1u82-27" value="PK,FK2" style="shape=partialRectangle;connectable=0;fillColor=none;top=0;left=0;bottom=0;right=0;fontStyle=1;overflow=hidden;" vertex="1" parent="ykE6M-6xC8zTkUyc1u82-26">
          <mxGeometry width="60" height="30" as="geometry" />
        </mxCell>
        <mxCell id="ykE6M-6xC8zTkUyc1u82-28" value="Row 2" style="shape=partialRectangle;connectable=0;fillColor=none;top=0;left=0;bottom=0;right=0;align=left;spacingLeft=6;fontStyle=5;overflow=hidden;" vertex="1" parent="ykE6M-6xC8zTkUyc1u82-26">
          <mxGeometry x="60" width="120" height="30" as="geometry" />
        </mxCell>
        <mxCell id="ykE6M-6xC8zTkUyc1u82-29" value="" style="shape=partialRectangle;collapsible=0;dropTarget=0;pointerEvents=0;fillColor=none;top=0;left=0;bottom=0;right=0;points=[[0,0.5],[1,0.5]];portConstraint=eastwest;" vertex="1" parent="ykE6M-6xC8zTkUyc1u82-22">
          <mxGeometry y="90" width="180" height="30" as="geometry" />
        </mxCell>
        <mxCell id="ykE6M-6xC8zTkUyc1u82-30" value="" style="shape=partialRectangle;connectable=0;fillColor=none;top=0;left=0;bottom=0;right=0;editable=1;overflow=hidden;" vertex="1" parent="ykE6M-6xC8zTkUyc1u82-29">
          <mxGeometry width="60" height="30" as="geometry" />
        </mxCell>
        <mxCell id="ykE6M-6xC8zTkUyc1u82-31" value="full_frame_image" style="shape=partialRectangle;connectable=0;fillColor=none;top=0;left=0;bottom=0;right=0;align=left;spacingLeft=6;overflow=hidden;" vertex="1" parent="ykE6M-6xC8zTkUyc1u82-29">
          <mxGeometry x="60" width="120" height="30" as="geometry" />
        </mxCell>
        <mxCell id="ykE6M-6xC8zTkUyc1u82-32" value="" style="shape=partialRectangle;collapsible=0;dropTarget=0;pointerEvents=0;fillColor=none;top=0;left=0;bottom=0;right=0;points=[[0,0.5],[1,0.5]];portConstraint=eastwest;" vertex="1" parent="ykE6M-6xC8zTkUyc1u82-22">
          <mxGeometry y="120" width="180" height="30" as="geometry" />
        </mxCell>
        <mxCell id="ykE6M-6xC8zTkUyc1u82-33" value="" style="shape=partialRectangle;connectable=0;fillColor=none;top=0;left=0;bottom=0;right=0;editable=1;overflow=hidden;" vertex="1" parent="ykE6M-6xC8zTkUyc1u82-32">
          <mxGeometry width="60" height="30" as="geometry" />
        </mxCell>
        <mxCell id="ykE6M-6xC8zTkUyc1u82-34" value="detected_dace_image" style="shape=partialRectangle;connectable=0;fillColor=none;top=0;left=0;bottom=0;right=0;align=left;spacingLeft=6;overflow=hidden;" vertex="1" parent="ykE6M-6xC8zTkUyc1u82-32">
          <mxGeometry x="60" width="120" height="30" as="geometry" />
        </mxCell>
        <mxCell id="ykE6M-6xC8zTkUyc1u82-35" value="" style="shape=partialRectangle;collapsible=0;dropTarget=0;pointerEvents=0;fillColor=none;top=0;left=0;bottom=0;right=0;points=[[0,0.5],[1,0.5]];portConstraint=eastwest;" vertex="1" parent="1">
          <mxGeometry x="470" y="220" width="180" height="40" as="geometry" />
        </mxCell>
        <mxCell id="ykE6M-6xC8zTkUyc1u82-36" value="" style="shape=partialRectangle;connectable=0;fillColor=none;top=0;left=0;bottom=0;right=0;editable=1;overflow=hidden;" vertex="1" parent="ykE6M-6xC8zTkUyc1u82-35">
          <mxGeometry width="60" height="40" as="geometry" />
        </mxCell>
        <mxCell id="ykE6M-6xC8zTkUyc1u82-37" value="location" style="shape=partialRectangle;connectable=0;fillColor=none;top=0;left=0;bottom=0;right=0;align=left;spacingLeft=6;overflow=hidden;" vertex="1" parent="ykE6M-6xC8zTkUyc1u82-35">
          <mxGeometry x="60" width="120" height="40" as="geometry" />
        </mxCell>
        <mxCell id="ykE6M-6xC8zTkUyc1u82-38" value="" style="shape=partialRectangle;collapsible=0;dropTarget=0;pointerEvents=0;fillColor=none;top=0;left=0;bottom=0;right=0;points=[[0,0.5],[1,0.5]];portConstraint=eastwest;" vertex="1" parent="1">
          <mxGeometry x="470" y="250" width="180" height="40" as="geometry" />
        </mxCell>
        <mxCell id="ykE6M-6xC8zTkUyc1u82-39" value="" style="shape=partialRectangle;connectable=0;fillColor=none;top=0;left=0;bottom=0;right=0;editable=1;overflow=hidden;" vertex="1" parent="ykE6M-6xC8zTkUyc1u82-38">
          <mxGeometry width="60" height="40" as="geometry" />
        </mxCell>
        <mxCell id="ykE6M-6xC8zTkUyc1u82-40" value="lan" style="shape=partialRectangle;connectable=0;fillColor=none;top=0;left=0;bottom=0;right=0;align=left;spacingLeft=6;overflow=hidden;" vertex="1" parent="ykE6M-6xC8zTkUyc1u82-38">
          <mxGeometry x="60" width="120" height="40" as="geometry" />
        </mxCell>
        <mxCell id="ykE6M-6xC8zTkUyc1u82-41" value="" style="shape=partialRectangle;collapsible=0;dropTarget=0;pointerEvents=0;fillColor=none;top=0;left=0;bottom=0;right=0;points=[[0,0.5],[1,0.5]];portConstraint=eastwest;" vertex="1" parent="1">
          <mxGeometry x="470" y="280" width="180" height="40" as="geometry" />
        </mxCell>
        <mxCell id="ykE6M-6xC8zTkUyc1u82-42" value="" style="shape=partialRectangle;connectable=0;fillColor=none;top=0;left=0;bottom=0;right=0;editable=1;overflow=hidden;" vertex="1" parent="ykE6M-6xC8zTkUyc1u82-41">
          <mxGeometry width="60" height="40" as="geometry" />
        </mxCell>
        <mxCell id="ykE6M-6xC8zTkUyc1u82-43" value="lon" style="shape=partialRectangle;connectable=0;fillColor=none;top=0;left=0;bottom=0;right=0;align=left;spacingLeft=6;overflow=hidden;" vertex="1" parent="ykE6M-6xC8zTkUyc1u82-41">
          <mxGeometry x="60" width="120" height="40" as="geometry" />
        </mxCell>
        <mxCell id="ykE6M-6xC8zTkUyc1u82-44" value="" style="shape=partialRectangle;collapsible=0;dropTarget=0;pointerEvents=0;fillColor=none;top=0;left=0;bottom=0;right=0;points=[[0,0.5],[1,0.5]];portConstraint=eastwest;" vertex="1" parent="1">
          <mxGeometry x="470" y="315" width="180" height="40" as="geometry" />
        </mxCell>
        <mxCell id="ykE6M-6xC8zTkUyc1u82-45" value="" style="shape=partialRectangle;connectable=0;fillColor=none;top=0;left=0;bottom=0;right=0;editable=1;overflow=hidden;" vertex="1" parent="ykE6M-6xC8zTkUyc1u82-44">
          <mxGeometry width="60" height="40" as="geometry" />
        </mxCell>
        <mxCell id="ykE6M-6xC8zTkUyc1u82-46" value="frame_send_time" style="shape=partialRectangle;connectable=0;fillColor=none;top=0;left=0;bottom=0;right=0;align=left;spacingLeft=6;overflow=hidden;" vertex="1" parent="ykE6M-6xC8zTkUyc1u82-44">
          <mxGeometry x="60" width="120" height="40" as="geometry" />
        </mxCell>
        <mxCell id="ykE6M-6xC8zTkUyc1u82-47" value="officer-email" style="text;strokeColor=none;fillColor=none;spacingLeft=4;spacingRight=4;overflow=hidden;rotatable=0;points=[[0,0.5],[1,0.5]];portConstraint=eastwest;fontSize=12;" vertex="1" parent="1">
          <mxGeometry x="120" y="360" width="150" height="30" as="geometry" />
        </mxCell>
        <mxCell id="ykE6M-6xC8zTkUyc1u82-48" value="" style="edgeStyle=entityRelationEdgeStyle;fontSize=12;html=1;endArrow=ERoneToMany;entryX=0;entryY=0.5;entryDx=0;entryDy=0;exitX=1;exitY=0.5;exitDx=0;exitDy=0;" edge="1" parent="1" source="ykE6M-6xC8zTkUyc1u82-8" target="ykE6M-6xC8zTkUyc1u82-23">
          <mxGeometry width="100" height="100" relative="1" as="geometry">
            <mxPoint x="130" y="250" as="sourcePoint" />
            <mxPoint x="230" y="150" as="targetPoint" />
          </mxGeometry>
        </mxCell>
        <mxCell id="ykE6M-6xC8zTkUyc1u82-49" value="1 to many" style="text;html=1;strokeColor=none;fillColor=none;align=center;verticalAlign=middle;whiteSpace=wrap;rounded=0;" vertex="1" parent="1">
          <mxGeometry x="385" y="60" width="40" height="20" as="geometry" />
        </mxCell>
        <mxCell id="ykE6M-6xC8zTkUyc1u82-50" value="" style="shape=partialRectangle;collapsible=0;dropTarget=0;pointerEvents=0;fillColor=none;top=0;left=0;bottom=0;right=0;points=[[0,0.5],[1,0.5]];portConstraint=eastwest;" vertex="1" parent="1">
          <mxGeometry x="470" y="350" width="180" height="40" as="geometry" />
        </mxCell>
        <mxCell id="ykE6M-6xC8zTkUyc1u82-51" value="" style="shape=partialRectangle;connectable=0;fillColor=none;top=0;left=0;bottom=0;right=0;editable=1;overflow=hidden;" vertex="1" parent="ykE6M-6xC8zTkUyc1u82-50">
          <mxGeometry width="60" height="40" as="geometry" />
        </mxCell>
        <mxCell id="ykE6M-6xC8zTkUyc1u82-52" value="camera_Url" style="shape=partialRectangle;connectable=0;fillColor=none;top=0;left=0;bottom=0;right=0;align=left;spacingLeft=6;overflow=hidden;" vertex="1" parent="ykE6M-6xC8zTkUyc1u82-50">
          <mxGeometry x="60" width="120" height="40" as="geometry" />
        </mxCell>
        <mxCell id="ykE6M-6xC8zTkUyc1u82-53" value="user" style="shape=table;startSize=30;container=1;collapsible=1;childLayout=tableLayout;fixedRows=1;rowLines=0;fontStyle=1;align=center;resizeLast=1;" vertex="1" parent="1">
          <mxGeometry x="90" y="510" width="180" height="160" as="geometry" />
        </mxCell>
        <mxCell id="ykE6M-6xC8zTkUyc1u82-54" value="" style="shape=partialRectangle;collapsible=0;dropTarget=0;pointerEvents=0;fillColor=none;top=0;left=0;bottom=0;right=0;points=[[0,0.5],[1,0.5]];portConstraint=eastwest;" vertex="1" parent="ykE6M-6xC8zTkUyc1u82-53">
          <mxGeometry y="30" width="180" height="30" as="geometry" />
        </mxCell>
        <mxCell id="ykE6M-6xC8zTkUyc1u82-55" value="PK,FK1" style="shape=partialRectangle;connectable=0;fillColor=none;top=0;left=0;bottom=0;right=0;fontStyle=1;overflow=hidden;" vertex="1" parent="ykE6M-6xC8zTkUyc1u82-54">
          <mxGeometry width="60" height="30" as="geometry" />
        </mxCell>
        <mxCell id="ykE6M-6xC8zTkUyc1u82-56" value="Row 1" style="shape=partialRectangle;connectable=0;fillColor=none;top=0;left=0;bottom=0;right=0;align=left;spacingLeft=6;fontStyle=5;overflow=hidden;" vertex="1" parent="ykE6M-6xC8zTkUyc1u82-54">
          <mxGeometry x="60" width="120" height="30" as="geometry" />
        </mxCell>
        <mxCell id="ykE6M-6xC8zTkUyc1u82-57" value="" style="shape=partialRectangle;collapsible=0;dropTarget=0;pointerEvents=0;fillColor=none;top=0;left=0;bottom=1;right=0;points=[[0,0.5],[1,0.5]];portConstraint=eastwest;" vertex="1" parent="ykE6M-6xC8zTkUyc1u82-53">
          <mxGeometry y="60" width="180" height="30" as="geometry" />
        </mxCell>
        <mxCell id="ykE6M-6xC8zTkUyc1u82-58" value="PK,FK2" style="shape=partialRectangle;connectable=0;fillColor=none;top=0;left=0;bottom=0;right=0;fontStyle=1;overflow=hidden;" vertex="1" parent="ykE6M-6xC8zTkUyc1u82-57">
          <mxGeometry width="60" height="30" as="geometry" />
        </mxCell>
        <mxCell id="ykE6M-6xC8zTkUyc1u82-59" value="Row 2" style="shape=partialRectangle;connectable=0;fillColor=none;top=0;left=0;bottom=0;right=0;align=left;spacingLeft=6;fontStyle=5;overflow=hidden;" vertex="1" parent="ykE6M-6xC8zTkUyc1u82-57">
          <mxGeometry x="60" width="120" height="30" as="geometry" />
        </mxCell>
        <mxCell id="ykE6M-6xC8zTkUyc1u82-60" value="" style="shape=partialRectangle;collapsible=0;dropTarget=0;pointerEvents=0;fillColor=none;top=0;left=0;bottom=0;right=0;points=[[0,0.5],[1,0.5]];portConstraint=eastwest;" vertex="1" parent="ykE6M-6xC8zTkUyc1u82-53">
          <mxGeometry y="90" width="180" height="30" as="geometry" />
        </mxCell>
        <mxCell id="ykE6M-6xC8zTkUyc1u82-61" value="" style="shape=partialRectangle;connectable=0;fillColor=none;top=0;left=0;bottom=0;right=0;editable=1;overflow=hidden;" vertex="1" parent="ykE6M-6xC8zTkUyc1u82-60">
          <mxGeometry width="60" height="30" as="geometry" />
        </mxCell>
        <mxCell id="ykE6M-6xC8zTkUyc1u82-62" value="Row 3" style="shape=partialRectangle;connectable=0;fillColor=none;top=0;left=0;bottom=0;right=0;align=left;spacingLeft=6;overflow=hidden;" vertex="1" parent="ykE6M-6xC8zTkUyc1u82-60">
          <mxGeometry x="60" width="120" height="30" as="geometry" />
        </mxCell>
        <mxCell id="ykE6M-6xC8zTkUyc1u82-63" value="" style="shape=partialRectangle;collapsible=0;dropTarget=0;pointerEvents=0;fillColor=none;top=0;left=0;bottom=0;right=0;points=[[0,0.5],[1,0.5]];portConstraint=eastwest;" vertex="1" parent="ykE6M-6xC8zTkUyc1u82-53">
          <mxGeometry y="120" width="180" height="30" as="geometry" />
        </mxCell>
        <mxCell id="ykE6M-6xC8zTkUyc1u82-64" value="" style="shape=partialRectangle;connectable=0;fillColor=none;top=0;left=0;bottom=0;right=0;editable=1;overflow=hidden;" vertex="1" parent="ykE6M-6xC8zTkUyc1u82-63">
          <mxGeometry width="60" height="30" as="geometry" />
        </mxCell>
        <mxCell id="ykE6M-6xC8zTkUyc1u82-65" value="Row 4" style="shape=partialRectangle;connectable=0;fillColor=none;top=0;left=0;bottom=0;right=0;align=left;spacingLeft=6;overflow=hidden;" vertex="1" parent="ykE6M-6xC8zTkUyc1u82-63">
          <mxGeometry x="60" width="120" height="30" as="geometry" />
        </mxCell>
        <mxCell id="ykE6M-6xC8zTkUyc1u82-66" value="" style="edgeStyle=entityRelationEdgeStyle;fontSize=12;html=1;endArrow=ERzeroToMany;endFill=1;startArrow=ERzeroToMany;exitX=0;exitY=0.063;exitDx=0;exitDy=0;exitPerimeter=0;" edge="1" parent="1" source="ykE6M-6xC8zTkUyc1u82-53">
          <mxGeometry width="100" height="100" relative="1" as="geometry">
            <mxPoint x="-70" y="590" as="sourcePoint" />
            <mxPoint x="70" y="40" as="targetPoint" />
          </mxGeometry>
        </mxCell>
      </root>
    </mxGraphModel>
  </diagram>
</mxfile>
